<?xml version="1.0" encoding="utf-8"?>
<!-- Generator: Adobe Illustrator 16.0.0, SVG Export Plug-In . SVG Version: 6.00 Build 0)  -->
<!DOCTYPE svg PUBLIC "-//W3C//DTD SVG 1.1//EN" "http://www.w3.org/Graphics/SVG/1.1/DTD/svg11.dtd">
<svg version="1.1" id="Layer_1" xmlns="http://www.w3.org/2000/svg" xmlns:xlink="http://www.w3.org/1999/xlink" x="0px" y="0px"
	 width="104px" height="104px" viewBox="0 0 104 104" enable-background="new 0 0 104 104" xml:space="preserve">
<path fill="#50B9D2" d="M58.476,1.583c1.176,0.129,2.334,0.308,3.469,0.547c4.869,1.028,9.684,2.485,14.07,4.879
	c15.373,8.397,24.734,21.182,27.061,38.544c2.344,17.497-3.17,32.561-16.107,44.59c-9.467,8.802-20.895,13.216-33.941,13.355
	c-14.79,0.159-27.316-5.113-37.629-15.548C-2.907,69.428-3.792,39.018,13.231,19.314c6.107-7.07,13.906-12.485,22.8-15.412
	c3.468-1.142,7.134-2.076,10.78-2.347C50.612,1.274,54.626,1.16,58.476,1.583 M52.051,97.225
	c23.474,0.049,44.835-18.203,45.147-44.536c0.277-23.286-17.916-44.695-44.603-45.03C28.958,7.361,7.798,25.686,7.443,52.146
	C7.126,75.871,25.831,96.666,52.051,97.225"/>
<path fill="#3B3D6B" d="M37.074,59.844c0.453-0.859,0.739-1.682,1.248-2.327c4.004-5.089,8.044-10.151,12.091-15.207
	c1.646-2.056,2.513-2.027,4.166,0.045c3.955,4.959,7.934,9.9,11.863,14.879c0.881,1.115,2.195,2.536,0.629,3.761
	c-1.549,1.209-2.426-0.504-3.268-1.551c-3.355-4.172-6.75-8.312-10-12.563c-1.2-1.567-1.839-1.099-2.809,0.14
	c-3.501,4.473-7.04,8.919-10.654,13.302c-0.447,0.542-1.418,0.787-2.18,0.871C37.88,61.225,37.501,60.399,37.074,59.844"/>
<path fill="#3B3D6B" d="M52.474,64.837c-2.476,3.075-4.747,5.882-6.999,8.702c-1.606,2.014-3.175,4.059-4.79,6.067
	c-0.74,0.921-1.789,1.834-2.796,0.819c-0.469-0.473-0.397-2.15,0.085-2.781c4.35-5.654,8.814-11.22,13.316-16.754
	c1.085-1.335,2.064-0.553,2.904,0.507c2.994,3.781,6.004,7.55,9.014,11.316c0.99,1.237,2.014,2.448,3.004,3.688
	c0.41,0.514,0.992,1.03,1.1,1.618c0.146,0.808-0.08,1.685-0.146,2.534c-0.83-0.182-1.977-0.08-2.438-0.592
	c-1.982-2.209-3.756-4.604-5.619-6.92C56.972,70.385,54.819,67.736,52.474,64.837"/>
<path fill="#3B3D6B" d="M37.091,40.316c0.451-0.851,0.723-1.606,1.192-2.207c3.912-4.989,7.851-9.958,11.802-14.915
	c1.981-2.485,2.88-2.429,4.867,0.097c3.717,4.721,7.473,9.415,11.209,14.12c0.205,0.259,0.42,0.511,0.607,0.783
	c0.725,1.051,1.648,2.278,0.375,3.327c-1.389,1.146-2.229-0.198-3.014-1.184c-3.42-4.284-6.893-8.528-10.234-12.871
	c-1.118-1.452-1.805-1.305-2.843,0.023c-3.537,4.527-7.121,9.018-10.768,13.459c-0.409,0.5-1.331,0.812-2.001,0.786
	C37.89,41.718,37.527,40.867,37.091,40.316"/>
</svg>
