<?xml version="1.0" encoding="utf-8"?>
<!-- Generator: Adobe Illustrator 16.0.0, SVG Export Plug-In . SVG Version: 6.00 Build 0)  -->
<!DOCTYPE svg PUBLIC "-//W3C//DTD SVG 1.1//EN" "http://www.w3.org/Graphics/SVG/1.1/DTD/svg11.dtd">
<svg version="1.1" id="Layer_1" xmlns="http://www.w3.org/2000/svg" xmlns:xlink="http://www.w3.org/1999/xlink" x="0px" y="0px"
	 width="225px" height="52px" viewBox="0 0 225 52" enable-background="new 0 0 225 52" xml:space="preserve">
<polygon fill="#24345B" points="56.511,14.671 60.289,14.671 64.785,32.343 69.656,14.671 73.652,14.671 78.179,32.249 
	82.708,14.671 86.516,14.671 80.084,36.371 76.056,36.371 71.498,19.947 66.658,36.371 62.663,36.402 "/>
<path fill="#24345B" d="M95.044,18.886c2.904,0,4.902,1.374,5.964,2.78v-2.499h3.591v17.205h-3.591v-2.561
	c-1.093,1.467-3.153,2.841-6.026,2.841c-4.465,0-8.055-3.653-8.055-8.961C86.927,22.382,90.517,18.886,95.044,18.886 M95.794,21.978
	c-2.654,0-5.214,1.998-5.214,5.713c0,3.716,2.56,5.87,5.214,5.87c2.685,0,5.214-2.092,5.214-5.807
	C101.008,24.068,98.479,21.978,95.794,21.978"/>
<path fill="#24345B" d="M115.994,18.886c2.84,0,4.932,1.374,5.932,2.78v-2.499h3.591v25.384h-3.591V33.873
	c-1,1.342-3.153,2.778-6.057,2.778c-4.433,0-8.024-3.653-8.024-8.961C107.845,22.382,111.436,18.886,115.994,18.886 M116.711,21.978
	c-2.653,0-5.212,1.998-5.212,5.713c0,3.716,2.559,5.87,5.212,5.87c2.687,0,5.215-2.092,5.215-5.807
	C121.926,24.068,119.397,21.978,116.711,21.978"/>
<path fill="#24345B" d="M136.909,19.167h-2.935v-1.218c0-1.966,0.75-2.716,2.935-2.716v-1.064c0-0.006,0.002-0.011,0.002-0.017
	v-1.885c-4.497,0-6.526,1.717-6.526,5.682v1.218h-2.028v2.904h2.028v14.3h3.59v-14.3h2.935V19.167z"/>
<path fill="#24345B" d="M142.094,16.888c1.28,0,2.279-0.999,2.279-2.279c0-1.281-0.999-2.28-2.279-2.28
	c-1.249,0-2.248,0.999-2.248,2.28C139.846,15.889,140.845,16.888,142.094,16.888"/>
<polygon fill="#24345B" points="140.314,36.371 143.873,36.371 143.873,19.167 140.326,19.167 "/>
<path fill="#24345B" d="M160.515,26.754c0-3.154-1.718-4.777-4.31-4.777c-2.623,0-4.34,1.623-4.34,4.777v9.616h-3.559V19.167h3.559
	v1.966c1.155-1.404,3.061-2.248,5.121-2.248c4.028,0,7.057,2.53,7.057,7.338V36.37h-3.528V26.754z"/>
<path fill="#24345B" d="M167.85,14.609c0-1.281,1-2.28,2.279-2.28c1.248,0,2.248,0.999,2.248,2.28c0,1.28-1,2.279-2.248,2.279
	C168.85,16.888,167.85,15.889,167.85,14.609 M168.317,19.167h3.56v17.204h-3.56V19.167z"/>
<path fill="#24345B" d="M176.873,22.071h-2.029v-2.904h2.029v-4.278h3.59v4.278h4.184v2.904h-4.184v9.523
	c0,1.279,0.5,1.811,1.999,1.811h2.185v2.967h-2.81c-3.06,0-4.964-1.28-4.964-4.777V22.071z"/>
<polygon fill="#24345B" points="199.477,19.167 203.162,19.167 192.607,44.458 188.924,44.458 192.421,36.09 185.645,19.167 
	189.611,19.167 194.449,32.281 "/>
<path fill="#50B9D2" d="M27.292,2.025c0.549,0.061,1.091,0.144,1.621,0.256c2.277,0.48,4.528,1.161,6.579,2.281
	c7.187,3.926,11.564,9.903,12.651,18.02c1.096,8.179-1.482,15.223-7.531,20.846c-4.426,4.116-9.768,6.179-15.868,6.245
	c-6.914,0.074-12.77-2.391-17.592-7.27c-8.557-8.66-8.971-22.877-1.013-32.089c2.856-3.305,6.503-5.836,10.66-7.205
	c1.621-0.534,3.335-0.971,5.04-1.098C23.616,1.882,25.492,1.829,27.292,2.025 M24.288,46.74
	c10.975,0.022,20.961-8.511,21.108-20.822c0.129-10.886-8.377-20.896-20.853-21.053C13.492,4.728,3.599,13.294,3.433,25.665
	C3.285,36.757,12.03,46.479,24.288,46.74"/>
<path fill="#3B3D6B" d="M30.71,28.965l-0.137,0.108L30.71,28.965c-1.938-2.457-3.877-4.913-5.816-7.369
	c-0.127-0.159-0.319-0.229-0.502-0.23c-0.184,0.001-0.375,0.071-0.503,0.23c-1.939,2.456-3.877,4.912-5.816,7.369
	c-0.117,0.149-0.183,0.334-0.183,0.521c-0.001,0.175,0.06,0.355,0.192,0.499c0.133,0.144,0.32,0.218,0.509,0.219
	c0.175,0.001,0.362-0.071,0.487-0.229c1.771-2.243,3.543-4.487,5.314-6.731c1.771,2.244,3.542,4.488,5.313,6.731
	c0.125,0.158,0.312,0.23,0.487,0.229c0.189-0.001,0.375-0.075,0.509-0.219c0.133-0.144,0.194-0.324,0.194-0.499
	C30.894,29.299,30.827,29.114,30.71,28.965"/>
<path fill="#3B3D6B" d="M30.71,21.049l-0.137,0.108L30.71,21.049c-1.938-2.457-3.877-4.913-5.816-7.369
	c-0.127-0.16-0.319-0.23-0.502-0.23c-0.184,0-0.375,0.07-0.503,0.23c-1.939,2.456-3.877,4.912-5.816,7.369
	c-0.117,0.149-0.183,0.333-0.183,0.521c-0.001,0.174,0.06,0.356,0.192,0.499c0.133,0.144,0.32,0.218,0.509,0.218
	c0.175,0.001,0.362-0.07,0.487-0.228c1.771-2.244,3.543-4.489,5.314-6.733c1.771,2.244,3.542,4.489,5.313,6.732
	c0.125,0.159,0.312,0.23,0.487,0.229c0.189,0,0.375-0.074,0.509-0.218c0.133-0.144,0.194-0.325,0.194-0.499
	C30.894,21.381,30.827,21.198,30.71,21.049"/>
<path fill="#3B3D6B" d="M30.755,36.882l-0.137,0.108L30.755,36.882c-1.938-2.457-3.877-4.913-5.816-7.369
	c-0.127-0.16-0.319-0.229-0.502-0.229c-0.184,0-0.375,0.07-0.503,0.229c-1.938,2.456-3.877,4.912-5.816,7.369
	c-0.117,0.149-0.183,0.333-0.183,0.521c-0.001,0.174,0.06,0.356,0.192,0.5c0.134,0.144,0.32,0.217,0.509,0.217
	c0.175,0.002,0.362-0.069,0.487-0.228c1.771-2.243,3.543-4.489,5.314-6.733c1.771,2.244,3.542,4.49,5.313,6.732
	c0.125,0.159,0.312,0.23,0.487,0.229c0.189,0,0.375-0.073,0.509-0.217c0.133-0.145,0.194-0.326,0.194-0.5
	C30.939,37.215,30.873,37.031,30.755,36.882"/>
<path fill="#50B9D2" d="M210.496,29.274c0.193,0.261,0.291,0.578,0.291,0.953c0,0.519-0.187,0.926-0.559,1.221
	c-0.372,0.294-0.884,0.442-1.537,0.442h-2.771v-6.105h2.684c0.636,0,1.134,0.14,1.495,0.42c0.359,0.28,0.541,0.671,0.541,1.173
	c0,0.324-0.086,0.603-0.256,0.84c-0.17,0.236-0.406,0.41-0.706,0.52C210.031,28.836,210.304,29.016,210.496,29.274 M207.012,28.357
	h1.412c0.768,0,1.15-0.286,1.15-0.857c0-0.289-0.095-0.502-0.285-0.641c-0.189-0.139-0.479-0.208-0.865-0.208h-1.412V28.357z
	 M209.453,30.808c0.186-0.144,0.277-0.369,0.277-0.675c0-0.307-0.094-0.534-0.281-0.685c-0.188-0.149-0.48-0.225-0.879-0.225h-1.559
	v1.8h1.559C208.975,31.023,209.269,30.953,209.453,30.808"/>
<path fill="#50B9D2" d="M215.455,29.967h-2.885c0.035,0.394,0.153,0.686,0.355,0.875c0.201,0.19,0.49,0.287,0.865,0.287
	c0.469,0,0.896-0.152,1.283-0.451l0.312,0.744c-0.197,0.162-0.444,0.293-0.741,0.391s-0.596,0.146-0.895,0.146
	c-0.694,0-1.241-0.195-1.643-0.589c-0.4-0.394-0.602-0.929-0.602-1.61c0-0.433,0.087-0.816,0.261-1.151
	c0.172-0.334,0.416-0.595,0.731-0.779c0.313-0.185,0.67-0.278,1.068-0.278c0.583,0,1.043,0.188,1.381,0.563
	c0.338,0.376,0.508,0.892,0.508,1.55V29.967z M212.896,28.592c-0.176,0.185-0.284,0.449-0.325,0.795h1.957
	c-0.011-0.352-0.098-0.619-0.259-0.801c-0.163-0.182-0.388-0.271-0.676-0.271S213.072,28.406,212.896,28.592"/>
<path fill="#50B9D2" d="M218.84,31.119l-0.052,0.805c-0.175,0.018-0.332,0.027-0.476,0.027c-0.596,0-1.035-0.138-1.316-0.412
	c-0.283-0.273-0.424-0.683-0.424-1.226V28.47h-0.815v-0.814h0.815v-1.264h1.082v1.264h1.117v0.814h-1.117v1.827
	c0,0.565,0.262,0.848,0.787,0.848C218.568,31.145,218.701,31.137,218.84,31.119"/>
<path fill="#50B9D2" d="M223.559,27.656v4.234h-1.074v-0.686c-0.127,0.236-0.31,0.422-0.549,0.555
	c-0.24,0.133-0.513,0.199-0.818,0.199c-0.369,0-0.696-0.089-0.979-0.268c-0.283-0.18-0.504-0.434-0.663-0.762
	c-0.159-0.33-0.237-0.714-0.237-1.152s0.078-0.827,0.237-1.164c0.159-0.338,0.382-0.6,0.667-0.784
	c0.286-0.185,0.609-0.276,0.975-0.276c0.306,0,0.578,0.064,0.818,0.193c0.239,0.13,0.422,0.314,0.549,0.551v-0.641H223.559z
	 M222.203,30.764c0.188-0.235,0.281-0.57,0.281-1.004c0-0.438-0.094-0.775-0.281-1.013s-0.455-0.356-0.801-0.356
	c-0.341,0-0.605,0.123-0.797,0.364c-0.189,0.243-0.285,0.584-0.285,1.022c0,0.427,0.096,0.758,0.285,0.99
	c0.191,0.234,0.459,0.352,0.807,0.352C221.752,31.119,222.016,31.001,222.203,30.764"/>
</svg>
