<?xml version="1.0" encoding="utf-8"?>
<!-- Generator: Adobe Illustrator 25.2.3, SVG Export Plug-In . SVG Version: 6.00 Build 0)  -->
<svg version="1.1" id="Layer_1" xmlns="http://www.w3.org/2000/svg" xmlns:xlink="http://www.w3.org/1999/xlink" x="0px" y="0px"
	 viewBox="0 0 350 150" style="enable-background:new 0 0 350 150;" xml:space="preserve">
<style type="text/css">
	.st0{fill:#20212C;}
	.st1{fill:#5FB4BC;}
</style>
<g>
	<g>
		<g>
			<path class="st0" d="M99.73,59.39h5.24l6.23,24.49l6.75-24.49h5.54l6.27,24.36l6.27-24.36h5.28l-8.91,30.07h-5.58L120.5,66.7
				l-6.71,22.76l-5.54,0.04L99.73,59.39z"/>
			<path class="st0" d="M153.14,65.23c4.02,0,6.79,1.9,8.27,3.85v-3.46h4.98v23.84h-4.98v-3.55c-1.51,2.03-4.37,3.94-8.35,3.94
				c-6.19,0-11.16-5.06-11.16-12.42C141.89,70.08,146.86,65.23,153.14,65.23z M154.18,69.51c-3.68,0-7.23,2.77-7.23,7.92
				s3.55,8.14,7.23,8.14c3.72,0,7.23-2.9,7.23-8.05C161.4,72.41,157.9,69.51,154.18,69.51z"/>
			<path class="st0" d="M182.17,65.23c3.94,0,6.84,1.9,8.22,3.85v-3.46h4.98v35.18h-4.98V86c-1.38,1.86-4.37,3.85-8.39,3.85
				c-6.14,0-11.12-5.06-11.12-12.42C170.88,70.08,175.85,65.23,182.17,65.23z M183.17,69.51c-3.68,0-7.23,2.77-7.23,7.92
				s3.55,8.14,7.23,8.14c3.72,0,7.23-2.9,7.23-8.05C190.39,72.41,186.89,69.51,183.17,69.51z"/>
			<path class="st0" d="M211.16,65.62h-4.07v-1.69c0-2.72,1.04-3.76,4.07-3.76v-1.47c0-0.01,0-0.01,0-0.02v-2.61
				c-6.23,0-9.04,2.38-9.04,7.88v1.69h-2.81v4.02h2.81v19.82h4.98V69.64h4.07V65.62z"/>
			<path class="st0" d="M218.34,62.46c1.77,0,3.16-1.38,3.16-3.16c0-1.77-1.38-3.16-3.16-3.16c-1.73,0-3.12,1.38-3.12,3.16
				C215.23,61.08,216.61,62.46,218.34,62.46z"/>
			<polygon class="st0" points="215.88,89.46 220.81,89.46 220.81,65.62 215.9,65.62 			"/>
			<path class="st0" d="M243.87,76.13c0-4.37-2.38-6.62-5.97-6.62c-3.63,0-6.02,2.25-6.02,6.62v13.33h-4.93V65.62h4.93v2.73
				c1.6-1.95,4.24-3.12,7.1-3.12c5.58,0,9.78,3.51,9.78,10.17v14.06h-4.89V76.13z"/>
			<path class="st0" d="M254.04,59.3c0-1.77,1.39-3.16,3.16-3.16c1.73,0,3.12,1.38,3.12,3.16c0,1.77-1.39,3.16-3.12,3.16
				C255.43,62.46,254.04,61.08,254.04,59.3z M254.69,65.62h4.93v23.84h-4.93V65.62z"/>
			<path class="st0" d="M266.55,69.64h-2.81v-4.02h2.81v-5.93h4.98v5.93h5.8v4.02h-5.8v13.2c0,1.77,0.69,2.51,2.77,2.51h3.03v4.11
				h-3.89c-4.24,0-6.88-1.77-6.88-6.62V69.64z"/>
			<path class="st0" d="M297.87,65.62h5.11l-14.63,35.05h-5.11l4.85-11.6l-9.39-23.45h5.5l6.71,18.17L297.87,65.62z"/>
		</g>
		<g>
			<g>
				<path class="st1" d="M59.24,41.86c0.76,0.08,1.51,0.2,2.25,0.35c3.16,0.67,6.28,1.61,9.12,3.16
					c9.96,5.44,16.03,13.72,17.53,24.97c1.52,11.34-2.05,21.1-10.44,28.89c-6.13,5.7-13.54,8.56-21.99,8.65
					c-9.58,0.1-17.7-3.31-24.38-10.07c-11.86-12-12.43-31.71-1.4-44.47c3.96-4.58,9.01-8.09,14.77-9.99
					c2.25-0.74,4.62-1.34,6.98-1.52C54.14,41.66,56.74,41.59,59.24,41.86z M55.08,103.83c15.21,0.03,29.05-11.79,29.25-28.86
					c0.18-15.09-11.61-28.96-28.9-29.18C40.11,45.61,26.4,57.48,26.17,74.62C25.97,90,38.09,103.47,55.08,103.83z"/>
			</g>
			<g>
				<path class="st0" d="M63.98,79.2l-0.19,0.15L63.98,79.2c-2.69-3.4-5.37-6.81-8.06-10.21c-0.18-0.22-0.44-0.32-0.7-0.32
					c-0.25,0-0.52,0.1-0.7,0.32c-2.69,3.4-5.37,6.81-8.06,10.21c-0.16,0.21-0.25,0.46-0.25,0.72c0,0.24,0.08,0.49,0.27,0.69
					c0.19,0.2,0.44,0.3,0.7,0.3c0.24,0,0.5-0.1,0.68-0.32c2.45-3.11,4.91-6.22,7.36-9.33c2.45,3.11,4.91,6.22,7.36,9.33
					c0.17,0.22,0.43,0.32,0.68,0.32c0.26,0,0.52-0.1,0.7-0.3c0.18-0.2,0.27-0.45,0.27-0.69C64.23,79.66,64.14,79.41,63.98,79.2z"/>
				<path class="st0" d="M63.98,68.23l-0.19,0.15L63.98,68.23c-2.69-3.4-5.37-6.81-8.06-10.21c-0.18-0.22-0.44-0.32-0.7-0.32
					c-0.25,0-0.52,0.1-0.7,0.32c-2.69,3.4-5.37,6.81-8.06,10.21c-0.16,0.21-0.25,0.46-0.25,0.72c0,0.24,0.08,0.49,0.27,0.69
					c0.19,0.2,0.44,0.3,0.7,0.3c0.24,0,0.5-0.1,0.68-0.32c2.45-3.11,4.91-6.22,7.36-9.33c2.45,3.11,4.91,6.22,7.36,9.33
					c0.17,0.22,0.43,0.32,0.68,0.32c0.26,0,0.52-0.1,0.7-0.3c0.18-0.2,0.27-0.45,0.27-0.69C64.23,68.69,64.14,68.43,63.98,68.23z"/>
				<path class="st0" d="M64.04,90.17l-0.19,0.15L64.04,90.17c-2.69-3.4-5.37-6.81-8.06-10.21c-0.18-0.22-0.44-0.32-0.7-0.32
					c-0.25,0-0.52,0.1-0.7,0.32c-2.69,3.4-5.37,6.81-8.06,10.21c-0.16,0.21-0.25,0.46-0.25,0.72c0,0.24,0.08,0.49,0.27,0.69
					c0.19,0.2,0.44,0.3,0.7,0.3c0.24,0,0.5-0.1,0.68-0.32c2.45-3.11,4.91-6.22,7.36-9.33c2.45,3.11,4.91,6.22,7.36,9.33
					c0.17,0.22,0.43,0.32,0.68,0.32c0.26,0,0.52-0.1,0.7-0.3c0.18-0.2,0.27-0.45,0.27-0.69C64.29,90.63,64.2,90.38,64.04,90.17z"/>
			</g>
		</g>
	</g>
	<g>
		<path class="st1" d="M313.15,79.63c0.27,0.36,0.4,0.8,0.4,1.32c0,0.72-0.26,1.28-0.77,1.69c-0.52,0.41-1.23,0.61-2.13,0.61h-3.84
			v-8.46h3.72c0.88,0,1.57,0.19,2.07,0.58s0.75,0.93,0.75,1.63c0,0.45-0.12,0.84-0.35,1.16c-0.24,0.33-0.56,0.57-0.98,0.72
			C312.5,79.02,312.88,79.27,313.15,79.63z M308.32,78.36h1.96c1.06,0,1.6-0.4,1.6-1.19c0-0.4-0.13-0.7-0.4-0.89
			c-0.26-0.19-0.66-0.29-1.2-0.29h-1.96V78.36z M311.7,81.75c0.26-0.2,0.38-0.51,0.38-0.94c0-0.42-0.13-0.74-0.39-0.95
			s-0.67-0.31-1.22-0.31h-2.16v2.5h2.16C311.04,82.05,311.44,81.95,311.7,81.75z"/>
		<path class="st1" d="M320.02,80.59h-4c0.05,0.54,0.21,0.95,0.49,1.21c0.28,0.26,0.68,0.4,1.2,0.4c0.65,0,1.24-0.21,1.78-0.62
			l0.43,1.03c-0.27,0.22-0.61,0.4-1.03,0.54s-0.83,0.2-1.24,0.2c-0.96,0-1.72-0.27-2.27-0.82c-0.56-0.54-0.83-1.29-0.83-2.23
			c0-0.6,0.12-1.13,0.36-1.6c0.24-0.46,0.58-0.82,1.01-1.08c0.44-0.26,0.93-0.38,1.48-0.38c0.81,0,1.45,0.26,1.91,0.78
			c0.47,0.52,0.7,1.24,0.7,2.15V80.59z M316.47,78.68c-0.24,0.26-0.39,0.62-0.45,1.1h2.71c-0.02-0.49-0.14-0.86-0.36-1.11
			c-0.22-0.25-0.54-0.38-0.94-0.38C317.04,78.3,316.71,78.42,316.47,78.68z"/>
		<path class="st1" d="M324.71,82.18l-0.07,1.12c-0.24,0.02-0.46,0.04-0.66,0.04c-0.82,0-1.43-0.19-1.82-0.57
			c-0.39-0.38-0.59-0.95-0.59-1.7v-2.56h-1.13v-1.13h1.13v-1.75h1.5v1.75h1.55v1.13h-1.55v2.53c0,0.78,0.36,1.18,1.09,1.18
			C324.33,82.22,324.52,82.21,324.71,82.18z"/>
		<path class="st1" d="M331.25,77.38v5.87h-1.49V82.3c-0.18,0.33-0.43,0.58-0.76,0.77c-0.33,0.18-0.71,0.28-1.13,0.28
			c-0.51,0-0.96-0.12-1.36-0.37c-0.39-0.25-0.7-0.6-0.92-1.06c-0.22-0.46-0.33-0.99-0.33-1.6c0-0.61,0.11-1.15,0.33-1.61
			c0.22-0.47,0.53-0.83,0.92-1.09c0.4-0.26,0.85-0.38,1.35-0.38c0.42,0,0.8,0.09,1.13,0.27c0.33,0.18,0.59,0.43,0.76,0.76v-0.89
			H331.25z M329.37,81.69c0.26-0.33,0.39-0.79,0.39-1.39c0-0.61-0.13-1.08-0.39-1.4c-0.26-0.33-0.63-0.49-1.11-0.49
			c-0.47,0-0.84,0.17-1.1,0.5c-0.26,0.34-0.4,0.81-0.4,1.42c0,0.59,0.13,1.05,0.4,1.37c0.26,0.32,0.64,0.49,1.12,0.49
			C328.74,82.18,329.11,82.02,329.37,81.69z"/>
	</g>
</g>
</svg>
